<svg xmlns="http://www.w3.org/2000/svg" width="1600" height="900" viewBox="0 0 1600 900">
<defs>
<pattern id="h1" width="6" height="6" patternUnits="userSpaceOnUse" patternTransform="rotate(45)"><line x1="0" y1="0" x2="0" y2="6" stroke="#14110E" stroke-width="2.2"/></pattern>
<pattern id="h2" width="9" height="9" patternUnits="userSpaceOnUse" patternTransform="rotate(-45)"><line x1="0" y1="0" x2="0" y2="9" stroke="#14110E" stroke-width="1"/></pattern>
<pattern id="hv" width="5" height="5" patternUnits="userSpaceOnUse"><line x1="0" y1="0" x2="0" y2="5" stroke="#14110E" stroke-width="1.6"/></pattern>
<pattern id="hh" width="7" height="7" patternUnits="userSpaceOnUse"><line x1="0" y1="0" x2="7" y2="0" stroke="#14110E" stroke-width="1.2"/></pattern>
<pattern id="mt" width="7" height="7" patternUnits="userSpaceOnUse" patternTransform="rotate(38)"><rect width="7" height="7" fill="#14110E"/><line x1="0" y1="0" x2="0" y2="7" stroke="#E8E2D4" stroke-width="1.15" opacity="0.5"/></pattern>
<radialGradient id="vig" cx="50%" cy="50%" r="62%"><stop offset="60%" stop-color="#fff" stop-opacity="0"/><stop offset="100%" stop-color="#14110E" stop-opacity="0.55"/></radialGradient>
</defs>
<rect width="1600" height="900" fill="#E8E2D4"/>
<line x1="200" y1="366.66666666666663" x2="1500" y2="366.66666666666663" stroke="#14110E" stroke-width="1" opacity="0.3" stroke-dasharray="2 6"/><line x1="200" y1="533.3333333333333" x2="1500" y2="533.3333333333333" stroke="#14110E" stroke-width="1" opacity="0.3" stroke-dasharray="2 6"/><line x1="200" y1="700.0" x2="1500" y2="700.0" stroke="#14110E" stroke-width="1" opacity="0.3" stroke-dasharray="2 6"/><text x="178" y="208.0" text-anchor="end" font-family="'Menlo','Courier New',monospace" font-size="24" fill="#14110E">0%</text><text x="178" y="374.66666666666663" text-anchor="end" font-family="'Menlo','Courier New',monospace" font-size="24" fill="#14110E">−10%</text><text x="178" y="541.3333333333333" text-anchor="end" font-family="'Menlo','Courier New',monospace" font-size="24" fill="#14110E">−20%</text><text x="178" y="708.0" text-anchor="end" font-family="'Menlo','Courier New',monospace" font-size="24" fill="#14110E">−30%</text><line x1="200.0" y1="752" x2="200.0" y2="764" stroke="#14110E" stroke-width="2"/><text x="200.0" y="792" text-anchor="middle" font-family="'Menlo','Courier New',monospace" font-size="24" fill="#14110E">0</text><line x1="460.0" y1="752" x2="460.0" y2="764" stroke="#14110E" stroke-width="2"/><text x="460.0" y="792" text-anchor="middle" font-family="'Menlo','Courier New',monospace" font-size="24" fill="#14110E">3</text><line x1="720.0" y1="752" x2="720.0" y2="764" stroke="#14110E" stroke-width="2"/><text x="720.0" y="792" text-anchor="middle" font-family="'Menlo','Courier New',monospace" font-size="24" fill="#14110E">6</text><line x1="980.0" y1="752" x2="980.0" y2="764" stroke="#14110E" stroke-width="2"/><text x="980.0" y="792" text-anchor="middle" font-family="'Menlo','Courier New',monospace" font-size="24" fill="#14110E">9</text><line x1="1240.0" y1="752" x2="1240.0" y2="764" stroke="#14110E" stroke-width="2"/><text x="1240.0" y="792" text-anchor="middle" font-family="'Menlo','Courier New',monospace" font-size="24" fill="#14110E">12</text><line x1="1500.0" y1="752" x2="1500.0" y2="764" stroke="#14110E" stroke-width="2"/><text x="1500.0" y="792" text-anchor="middle" font-family="'Menlo','Courier New',monospace" font-size="24" fill="#14110E">15</text><line x1="200" y1="752" x2="1500" y2="752" stroke="#14110E" stroke-width="2"/><text x="1500" y="140" text-anchor="end" font-family="'Songti SC','Source Han Serif SC','Noto Serif CJK SC',serif" font-size="30" fill="#14110E"></text><text x="1500" y="830" text-anchor="end" font-family="'Songti SC','Source Han Serif SC','Noto Serif CJK SC',serif" font-size="28" fill="#14110E">峰值后月数</text><text x="200" y="150" font-family="'Songti SC','Source Han Serif SC','Noto Serif CJK SC',serif" font-size="28" fill="#14110E">较峰值</text><path d="M200.0 200.0L781.5 539.2L1402.9 200.0Z" fill="url(#h1)" opacity="0.6"/><path d="M200.0 200.0L781.5 539.2L1402.9 200.0Z" fill="url(#h2)" opacity="0.35"/><path d="M200.0 200.0L781.5 539.2L1402.9 200.0" fill="none" stroke="#14110E" stroke-width="3" stroke-dasharray="10 7"/><line x1="200" y1="200" x2="1500" y2="200" stroke="#14110E" stroke-width="2.5"/><text x="1402.9" y="180" text-anchor="middle" font-family="'Menlo','Courier New',monospace" font-size="24" fill="#14110E">2023.5</text><rect width="1600" height="900" fill="url(#vig)"/>
<polyline points="200.0,200.0 213.9,616.7 308.3,375.0 356.9,643.3 416.7,423.3 622.1,673.3 724.3,658.3 784.1,486.7 817.9,568.3" fill="none" stroke="#B03A2E" stroke-width="6" stroke-linejoin="round"/><circle cx="200.0" cy="200.0" r="8" fill="#E8E2D4" stroke="#B03A2E" stroke-width="4"/><circle cx="213.9" cy="616.7" r="8" fill="#E8E2D4" stroke="#B03A2E" stroke-width="4"/><circle cx="308.3" cy="375.0" r="8" fill="#E8E2D4" stroke="#B03A2E" stroke-width="4"/><circle cx="356.9" cy="643.3" r="8" fill="#E8E2D4" stroke="#B03A2E" stroke-width="4"/><circle cx="416.7" cy="423.3" r="8" fill="#E8E2D4" stroke="#B03A2E" stroke-width="4"/><circle cx="622.1" cy="673.3" r="8" fill="#E8E2D4" stroke="#B03A2E" stroke-width="4"/><circle cx="724.3" cy="658.3" r="8" fill="#E8E2D4" stroke="#B03A2E" stroke-width="4"/><circle cx="784.1" cy="486.7" r="8" fill="#E8E2D4" stroke="#B03A2E" stroke-width="4"/><circle cx="817.9" cy="568.3" r="8" fill="#E8E2D4" stroke="#B03A2E" stroke-width="4"/><line x1="1060" y1="642" x2="1120" y2="642" stroke="#B03A2E" stroke-width="6"/><text x="1136" y="652" font-family="'Menlo','Courier New',monospace" font-size="30" fill="#14110E">2026  最深 −28%</text><rect x="1060" y="676" width="60" height="30" fill="url(#h1)" opacity="0.6"/><rect x="1060" y="676" width="60" height="30" fill="none" stroke="#14110E" stroke-width="2" stroke-dasharray="6 4"/><text x="1136" y="702" font-family="'Menlo','Courier New',monospace" font-size="30" fill="#14110E">2022  最深 −20%</text><path d="M823.9333333333333 574.3333333333333V620.3333333333333L834.9333333333333 609.3333333333333L842.9333333333333 628.3333333333333L850.9333333333333 624.3333333333333L842.9333333333333 606.3333333333333H857.9333333333333Z" fill="#14110E" stroke="#EFEAE0" stroke-width="2.5" stroke-linejoin="round"/><text x="64" y="836" font-family="'PingFang SC','Source Han Sans SC','Noto Sans CJK SC',sans-serif" font-size="24" fill="#14110E" opacity="0.65">峰值记为 0：2022 年 3/8 约 $2,074；2026 年 1/28 约 $5,589；2026 截至 9/2 约 $4,356</text>
<text x="64" y="872" font-family="'PingFang SC','Source Han Sans SC','Noto Sans CJK SC',sans-serif" font-size="24" fill="#14110E" opacity="0.65">关键收盘点直连，非逐日走势</text>
</svg>